<svg width="59" height="59" viewBox="0 0 59 59" fill="none" xmlns="http://www.w3.org/2000/svg">
<path d="M27.042 14.7501H31.9587V34.4167L40.5628 25.8126L44.0537 29.3034L29.5003 43.8568L14.947 29.3034L18.4378 25.8126L27.042 34.4167V14.7501ZM29.5003 54.0834C26.272 54.0834 23.0753 53.4476 20.0927 52.2121C17.1101 50.9767 14.4001 49.1659 12.1173 46.8831C7.50701 42.2729 4.91699 36.02 4.91699 29.5001C4.91699 22.9802 7.50701 16.7273 12.1173 12.117C16.7276 7.50677 22.9804 4.91675 29.5003 4.91675C32.7287 4.91675 35.9254 5.55261 38.908 6.78804C41.8906 8.02347 44.6006 9.83427 46.8834 12.117C49.1661 14.3998 50.9769 17.1099 52.2124 20.0924C53.4478 23.075 54.0837 26.2718 54.0837 29.5001C54.0837 36.02 51.4936 42.2729 46.8834 46.8831C42.2731 51.4934 36.0202 54.0834 29.5003 54.0834ZM29.5003 49.1668C34.7163 49.1668 39.7185 47.0947 43.4068 43.4065C47.095 39.7183 49.167 34.716 49.167 29.5001C49.167 24.2842 47.095 19.2819 43.4068 15.5936C39.7185 11.9054 34.7163 9.83342 29.5003 9.83342C24.2844 9.83342 19.2821 11.9054 15.5939 15.5936C11.9057 19.2819 9.83366 24.2842 9.83366 29.5001C9.83366 34.716 11.9057 39.7183 15.5939 43.4065C19.2821 47.0947 24.2844 49.1668 29.5003 49.1668Z" fill="#173455"/>
</svg>
